<?xml version="1.0" encoding="utf-8"?>
<!-- Generator: Adobe Illustrator 23.0.6, SVG Export Plug-In . SVG Version: 6.00 Build 0)  -->
<svg version="1.1" id="Layer_1" xmlns="http://www.w3.org/2000/svg" xmlns:xlink="http://www.w3.org/1999/xlink" x="0px" y="0px"
	 viewBox="0 0 100 100" style="enable-background:new 0 0 100 100;" xml:space="preserve">
<style type="text/css">
	.st0{fill:#FFFFFF;}
	.st1{fill:#DF3449;}
	.st2{fill:#FBD10A;}
</style>
<circle class="st0" cx="50.08" cy="50" r="50"/>
<g>
	<g>
		<g>
			<path class="st1" d="M85.46,27.73C74.9,22.54,64.28,17.47,53.7,12.33c-1.47-0.71-3-0.79-4.56-0.82
				c-3.28,0.01-6.36,1.17-9.54,1.76c-5.42,1-10.77,2.38-16.19,3.39c-3.56,0.66-5.53,2.72-6.15,6.18c-1.7,9.42-3.36,18.85-5.02,28.27
				c-0.55,3.1-0.83,6.27-1.62,9.3c-0.98,3.73,0.65,6.1,3.43,7.99c3.49,2.36,7.04,4.62,10.58,6.9c5.96,3.85,12.01,7.58,17.88,11.57
				c3.47,2.35,6.68,2.58,10.41,0.58c6.56-3.52,13.25-6.8,19.93-10.07c3.01-1.47,4.95-3.74,5.92-6.93
				c3.47-11.47,6.99-22.93,10.39-34.42C90.4,31.84,89.42,29.67,85.46,27.73z M66.75,26.46c2.04-0.71,3.96-0.14,5.79,0.75
				c0.58,0.28,1.44,0.77,1.15,1.57c-0.28,0.77-1.21,0.45-1.81,0.52c-2.13-0.01-5.27-1.34-5.37-2.27
				C66.49,26.85,66.61,26.51,66.75,26.46z M59.6,33c-0.32,0.78-1.22,0.47-1.89,0.54c-1.17-0.03-3.85-0.89-4.63-1.58
				c-0.33-0.29-0.77-0.76-0.74-1.11c0.05-0.65,0.66-0.86,1.31-0.92c1.73-0.17,3.24,0.53,4.74,1.23C59.11,31.49,60.01,31.97,59.6,33z
				 M49.75,16.7c1.47-0.14,2.81,0.34,4.09,0.99c0.52,0.26,1.2,0.6,1.07,1.26c-0.19,0.95-1.09,0.62-1.62,0.69
				c-1.46,0.06-2.69-0.41-3.89-0.92c-0.54-0.23-1.09-0.63-1.03-1.31C48.45,16.56,49.22,16.75,49.75,16.7z M34.56,20.7
				c1.8-0.72,3.53-0.27,5.21,0.44c0.65,0.28,1.42,0.73,1.21,1.56c-0.22,0.88-1.13,0.61-1.8,0.68c-1.85-0.05-3.55-0.47-4.74-2.06
				C34.35,21.21,34.45,20.75,34.56,20.7z M19.62,64.97c-1.8,0.47-3-0.54-3.83-1.98c-1-1.74-1.31-3.65-0.57-5.58
				c0.67-1.74,2.24-2.24,3.78-1.22c1.86,1.23,2.56,3.1,2.53,5.71C21.39,62.93,21.4,64.5,19.62,64.97z M26.42,37.57
				c-0.75,0.87-1.86,1.01-2.94,0.44c-2.05-1.08-2.64-2.97-2.73-5.13c-0.03-2.34,0.95-4.04,2.48-4.3c1.38-0.24,3.35,1.25,3.88,3.15
				C27.68,33.74,27.92,35.84,26.42,37.57z M35.3,56.03c-0.52,2.76-2.98,3.65-5.09,1.87c-1.58-1.33-2.2-3.11-2.16-4.35
				c0.04-2.45,0.28-4.09,2.08-4.64c1.84-0.56,3.19,0.33,4.23,1.91C35.42,52.44,35.64,54.21,35.3,56.03z M41.13,78.65
				c-1.65,0.51-3.04-0.18-4.04-1.58c-1.33-1.84-1.95-3.87-1.19-6.11c0.76-2.25,2.53-2.88,4.5-1.63c1.99,1.27,2.77,3.22,2.8,5.52
				C43.22,76.53,42.91,78.1,41.13,78.65z M46.81,51.71c-2.37,0.09-4.74-2.8-4.82-5.87c-0.06-2.36,1.43-4.31,3.35-4.38
				c2.48-0.09,4.71,2.62,4.75,5.8C50.12,49.76,48.73,51.64,46.81,51.71z M86.53,35.75c-3.39,11.35-6.82,22.68-10.2,34.03
				c-0.74,2.49-2.28,4.19-4.55,5.31c-3.23,1.59-6.44,3.2-9.66,4.81c-3.64,1.82-7.28,3.66-10.94,5.46c-1.13,0.56-2.15,0.7-2.08-1.1
				c0.06-0.26,0.1-0.5,0.16-0.73c3.05-12.19,6.14-24.37,9.12-36.58c0.83-3.41,2.74-5.44,6.03-6.5c6.72-2.16,13.38-4.51,20.08-6.71
				c0.71-0.23,1.54-1.11,2.29-0.35C87.52,34.13,86.76,34.98,86.53,35.75z"/>
		</g>
	</g>
	<g>
		<path class="st2" d="M73.55,40.68c-1.42,3.82-2.81,7.59-4.23,11.43c3.38,0.65,6.71,1.29,10.14,1.96
			c-0.93,1.22-1.93,2.32-2.87,3.46c-0.96,1.16-1.91,2.32-2.91,3.46c-0.98,1.11-1.88,2.27-2.83,3.4c-0.97,1.14-1.92,2.28-2.88,3.42
			c-0.96,1.14-1.92,2.29-2.88,3.43c-0.97,1.16-1.93,2.32-2.9,3.47c-0.96,1.14-1.92,2.28-2.88,3.42c-0.04-0.01-0.07-0.02-0.11-0.03
			c2.41-6.44,4.83-12.88,7.26-19.39c-2.63-1.14-5.3-2.2-7.95-3.36L73.55,40.68z"/>
	</g>
</g>
</svg>
