<?xml version="1.0" encoding="utf-8"?>
<!-- Generator: Adobe Illustrator 23.0.6, SVG Export Plug-In . SVG Version: 6.00 Build 0)  -->
<svg version="1.1" id="Layer_1" xmlns="http://www.w3.org/2000/svg" xmlns:xlink="http://www.w3.org/1999/xlink" x="0px" y="0px"
	 viewBox="0 0 100 100" style="enable-background:new 0 0 100 100;" xml:space="preserve">
<style type="text/css">
	.st0{fill:#FFFFFF;}
	.st1{fill:#FBD10A;}
</style>
<g>
	<g>
		<g>
			<path class="st0" d="M94.7,21.88C81.39,15.34,68,8.96,54.66,2.47c-1.85-0.9-3.78-1-5.74-1.03c-4.14,0.01-8.02,1.48-12.03,2.22
				c-6.83,1.26-13.58,3-20.41,4.27C12,8.76,9.52,11.35,8.73,15.71C6.58,27.58,4.5,39.47,2.41,51.35c-0.69,3.91-1.05,7.9-2.05,11.73
				c-1.23,4.7,0.82,7.69,4.33,10.07c4.39,2.98,8.88,5.82,13.34,8.7c7.52,4.85,15.13,9.56,22.54,14.58
				c4.37,2.97,8.42,3.25,13.12,0.73c8.27-4.44,16.7-8.57,25.13-12.7c3.79-1.86,6.24-4.72,7.46-8.74c4.38-14.46,8.82-28.9,13.1-43.39
				C100.92,27.07,99.69,24.34,94.7,21.88z M71.11,20.28c2.58-0.9,4.99-0.18,7.3,0.95c0.73,0.36,1.82,0.97,1.45,1.99
				c-0.35,0.97-1.52,0.56-2.28,0.66c-2.69-0.01-6.64-1.68-6.77-2.86C70.78,20.78,70.94,20.34,71.11,20.28z M62.1,28.52
				c-0.4,0.99-1.54,0.6-2.38,0.68c-1.47-0.03-4.85-1.12-5.84-1.99c-0.42-0.37-0.97-0.96-0.94-1.4c0.07-0.82,0.84-1.08,1.65-1.17
				c2.18-0.22,4.09,0.66,5.97,1.55C61.49,26.62,62.62,27.23,62.1,28.52z M49.69,7.98c1.85-0.18,3.54,0.42,5.16,1.24
				c0.65,0.33,1.51,0.76,1.35,1.59c-0.24,1.2-1.37,0.79-2.04,0.86c-1.85,0.08-3.39-0.52-4.9-1.16c-0.68-0.29-1.37-0.8-1.3-1.65
				C48.05,7.8,49.02,8.05,49.69,7.98z M30.54,13.03c2.27-0.91,4.45-0.34,6.56,0.56c0.83,0.35,1.79,0.92,1.53,1.97
				c-0.28,1.11-1.43,0.77-2.27,0.86c-2.34-0.06-4.48-0.59-5.97-2.6C30.28,13.66,30.4,13.09,30.54,13.03z M11.7,68.83
				c-2.27,0.6-3.79-0.68-4.83-2.5c-1.26-2.2-1.65-4.61-0.72-7.03c0.84-2.19,2.82-2.83,4.76-1.54c2.34,1.56,3.23,3.91,3.19,7.2
				C13.94,66.26,13.95,68.24,11.7,68.83z M20.28,34.29c-0.95,1.1-2.35,1.27-3.71,0.55c-2.58-1.37-3.33-3.74-3.45-6.46
				c-0.04-2.95,1.19-5.09,3.13-5.42c1.73-0.3,4.22,1.58,4.89,3.97C21.86,29.47,22.17,32.11,20.28,34.29z M31.47,57.56
				c-0.65,3.48-3.75,4.6-6.42,2.35c-1.99-1.67-2.77-3.92-2.72-5.48c0.06-3.09,0.35-5.15,2.62-5.84c2.32-0.71,4.03,0.42,5.33,2.41
				C31.62,53.04,31.9,55.27,31.47,57.56z M38.81,86.08c-2.08,0.64-3.83-0.23-5.1-1.99c-1.68-2.33-2.45-4.88-1.5-7.7
				c0.95-2.83,3.19-3.64,5.67-2.05c2.51,1.6,3.49,4.06,3.53,6.96C41.45,83.4,41.07,85.38,38.81,86.08z M45.98,52.12
				c-2.98,0.11-5.97-3.53-6.07-7.4c-0.08-2.97,1.8-5.43,4.22-5.52c3.13-0.12,5.93,3.31,5.98,7.31
				C50.15,49.65,48.4,52.03,45.98,52.12z M96.05,31.99c-4.27,14.3-8.59,28.59-12.86,42.9c-0.94,3.14-2.88,5.28-5.74,6.69
				c-4.07,2-8.12,4.04-12.18,6.07c-4.59,2.3-9.18,4.62-13.79,6.89c-1.42,0.7-2.71,0.88-2.63-1.39c0.07-0.33,0.13-0.63,0.21-0.92
				c3.84-15.37,7.74-30.72,11.49-46.11c1.05-4.3,3.46-6.86,7.6-8.19c8.47-2.73,16.86-5.69,25.31-8.46c0.9-0.29,1.94-1.4,2.89-0.44
				C97.3,29.95,96.33,31.03,96.05,31.99z"/>
		</g>
	</g>
	<g>
		<path class="st1" d="M79.69,38.21c-1.78,4.82-3.54,9.57-5.33,14.4c4.27,0.82,8.46,1.63,12.78,2.47c-1.17,1.53-2.43,2.93-3.61,4.36
			c-1.21,1.46-2.41,2.93-3.67,4.36c-1.24,1.4-2.37,2.87-3.57,4.29c-1.22,1.43-2.43,2.88-3.64,4.32s-2.42,2.88-3.62,4.32
			c-1.22,1.46-2.43,2.92-3.66,4.38c-1.21,1.44-2.42,2.87-3.63,4.31c-0.05-0.01-0.09-0.03-0.14-0.04c3.04-8.12,6.08-16.24,9.16-24.44
			c-3.31-1.44-6.68-2.77-10.02-4.23L79.69,38.21z"/>
	</g>
</g>
</svg>
